<svg width="24" height="24" viewBox="0 0 24 24" fill="none" xmlns="http://www.w3.org/2000/svg">
<path fill-rule="evenodd" clip-rule="evenodd" d="M13.0001 3C13.0001 2.73478 12.8947 2.48043 12.7072 2.29289C12.5197 2.10536 12.2653 2 12.0001 2C11.7349 2 11.4805 2.10536 11.293 2.29289C11.1055 2.48043 11.0001 2.73478 11.0001 3V3.75H10.4431C9.37113 3.74993 8.33943 4.15839 7.55803 4.89224C6.77662 5.62608 6.30426 6.63014 6.2371 7.7L6.0161 11.234C5.93067 12.5812 5.47835 13.8794 4.7081 14.988C4.54874 15.2171 4.45136 15.4835 4.42545 15.7613C4.39953 16.0392 4.44596 16.319 4.56022 16.5736C4.67447 16.8281 4.85267 17.0488 5.07747 17.2142C5.30227 17.3795 5.56604 17.4838 5.8431 17.517L9.2501 17.925V19C9.2501 19.7293 9.53983 20.4288 10.0556 20.9445C10.5713 21.4603 11.2708 21.75 12.0001 21.75C12.7294 21.75 13.4289 21.4603 13.9446 20.9445C14.4604 20.4288 14.7501 19.7293 14.7501 19V17.925L18.1571 17.516C18.434 17.4827 18.6976 17.3784 18.9223 17.2131C19.1469 17.0478 19.325 16.8273 19.4393 16.5729C19.5535 16.3184 19.6 16.0388 19.5742 15.7611C19.5484 15.4834 19.4512 15.2171 19.2921 14.988C18.5219 13.8794 18.0695 12.5812 17.9841 11.234L17.7631 7.701C17.6962 6.63096 17.2239 5.62665 16.4425 4.8926C15.6611 4.15855 14.6292 3.74995 13.5571 3.75H13.0001V3ZM10.4431 5.25C9.75268 5.24992 9.08817 5.51297 8.58488 5.98561C8.08159 6.45825 7.77735 7.10493 7.7341 7.794L7.5141 11.328C7.41129 12.9487 6.86697 14.5105 5.9401 15.844C5.92857 15.8606 5.92152 15.8798 5.91964 15.8999C5.91776 15.92 5.9211 15.9403 5.92936 15.9587C5.93761 15.9771 5.95049 15.9931 5.96674 16.005C5.98299 16.017 6.00206 16.0246 6.0221 16.027L9.7591 16.476C11.2481 16.654 12.7521 16.654 14.2411 16.476L17.9781 16.027C17.9981 16.0246 18.0172 16.017 18.0335 16.005C18.0497 15.9931 18.0626 15.9771 18.0708 15.9587C18.0791 15.9403 18.0824 15.92 18.0806 15.8999C18.0787 15.8798 18.0716 15.8606 18.0601 15.844C17.1336 14.5104 16.5896 12.9486 16.4871 11.328L16.2661 7.794C16.2229 7.10493 15.9186 6.45825 15.4153 5.98561C14.912 5.51297 14.2475 5.24992 13.5571 5.25H10.4431ZM12.0001 20.25C11.3101 20.25 10.7501 19.69 10.7501 19V18.25H13.2501V19C13.2501 19.69 12.6901 20.25 12.0001 20.25Z" fill="#5C5D60"/>
</svg>
