<svg width="16" height="16" viewBox="0 0 16 16" fill="none" xmlns="http://www.w3.org/2000/svg">
<path fill-rule="evenodd" clip-rule="evenodd" d="M7.09263 1.68265C4.22018 1.68265 1.8916 4.01132 1.8916 6.88388C1.8916 9.75643 4.22018 12.0851 7.09263 12.0851C9.96508 12.0851 12.2937 9.75643 12.2937 6.88388C12.2937 4.01132 9.96508 1.68265 7.09263 1.68265ZM1 6.88388C1 3.51888 3.72776 0.791016 7.09263 0.791016C10.4575 0.791016 13.1853 3.51888 13.1853 6.88388C13.1853 10.2489 10.4575 12.9767 7.09263 12.9767C3.72776 12.9767 1 10.2489 1 6.88388Z" fill="#797777" stroke="#797777" stroke-width="0.7" stroke-linecap="round" stroke-linejoin="round"/>
<path fill-rule="evenodd" clip-rule="evenodd" d="M12.1046 11.9755C12.3631 11.7243 12.7823 11.7243 13.0408 11.9755L14.8061 13.6911C15.0647 13.9424 15.0647 14.3497 14.8061 14.601C14.5476 14.8522 14.1284 14.8522 13.8699 14.601L12.1046 12.8854C11.8461 12.6341 11.8461 12.2268 12.1046 11.9755Z" fill="#797777" stroke="#797777" stroke-width="0.7" stroke-linecap="round" stroke-linejoin="round"/>
</svg>
