<svg width="64" height="22" viewBox="0 0 64 22" fill="none" xmlns="http://www.w3.org/2000/svg">
<path d="M27.2316 12.6214H0.397217V21.5609H27.2316V12.6214Z" fill="#84B740"/>
<path d="M27.2316 0.423187H0.397217V9.37065H27.2316V0.423187Z" fill="#259BD6"/>
<path d="M54.066 19.7443L53.9465 19.7682C53.5322 19.8479 53.3808 19.8797 53.078 19.8797C52.3769 19.8797 51.5483 19.5212 51.5483 17.8321C51.5483 16.9636 51.6917 15.8084 52.9983 15.8084H53.0063C53.2294 15.8243 53.4844 15.8482 53.9624 15.9916L54.066 16.0235V19.7443ZM54.2811 11.3227L54.066 11.3625V14.4858L53.8748 14.43L53.819 14.4141C53.6039 14.3503 53.1099 14.2069 52.6318 14.2069C50.0185 14.2069 49.4688 16.1828 49.4688 17.8401C49.4688 20.1108 50.7435 21.4175 52.9665 21.4175C53.9066 21.4175 54.5998 21.3219 55.3009 21.0908C55.9463 20.8836 56.1774 20.5888 56.1774 19.9594V10.996C55.5559 11.1076 54.9105 11.2191 54.2811 11.3227Z" fill="#27292D"/>
<path d="M61.8344 19.8001L61.7228 19.8319L61.3245 19.9355C60.95 20.0311 60.6154 20.0869 60.3604 20.0869C59.7469 20.0869 59.3804 19.7841 59.3804 19.2662C59.3804 18.9316 59.5318 18.3659 60.5357 18.3659H61.8344V19.8001ZM60.9181 14.1671C60.1134 14.1671 59.2848 14.3105 58.257 14.6292L57.5877 14.8284L57.8108 16.3422L58.4641 16.1271C59.1493 15.904 60.0019 15.7606 60.6393 15.7606C60.9261 15.7606 61.8025 15.7606 61.8025 16.7087V17.123H60.5835C58.3606 17.123 57.3328 17.8321 57.3328 19.3539C57.3328 20.6526 58.2809 21.4334 59.8744 21.4334C60.3684 21.4334 61.0536 21.3378 61.6432 21.1944L61.675 21.1864L61.7069 21.1944L61.9061 21.2262C62.5275 21.3378 63.1729 21.4493 63.8023 21.5688V16.5971C63.8023 14.9877 62.8303 14.1671 60.9181 14.1671Z" fill="#27292D"/>
<path d="M46.3534 19.8001L46.2419 19.8319L45.8435 19.9355C45.469 20.0311 45.1424 20.0869 44.8794 20.0869C44.2659 20.0869 43.8994 19.7841 43.8994 19.2662C43.8994 18.9316 44.0508 18.3659 45.0468 18.3659H46.3455V19.8001H46.3534ZM45.4451 14.1671C44.6324 14.1671 43.8118 14.3105 42.784 14.6292L42.1147 14.8284L42.3378 16.3422L42.9912 16.1271C43.6764 15.904 44.5289 15.7606 45.1663 15.7606C45.4531 15.7606 46.3295 15.7606 46.3295 16.7087V17.123H45.1105C42.8876 17.123 41.8518 17.8321 41.8518 19.3539C41.8518 20.6526 42.7999 21.4334 44.4014 21.4334C44.8954 21.4334 45.5806 21.3378 46.1702 21.1944L46.202 21.1864L46.2339 21.1944L46.4251 21.2262C47.0546 21.3378 47.692 21.4493 48.3214 21.5768V16.6051C48.3293 14.9798 47.3573 14.1671 45.4451 14.1671Z" fill="#27292D"/>
<path d="M37.9637 14.183C36.9518 14.183 36.1153 14.5176 35.8045 14.661L35.7249 14.7009L35.6531 14.6451C35.2229 14.3344 34.5935 14.175 33.7171 14.175C32.9442 14.175 32.2192 14.2866 31.4304 14.5176C30.7532 14.7248 30.4902 15.0515 30.4902 15.6649V21.3458H32.6096V16.0952L32.7132 16.0633C33.1434 15.9199 33.3984 15.896 33.6454 15.896C34.2588 15.896 34.5696 16.2227 34.5696 16.8601V21.3537H36.6571V16.7724C36.6571 16.5015 36.6013 16.3422 36.5933 16.3103L36.5216 16.1749L36.665 16.1111C36.9837 15.9677 37.3343 15.896 37.7008 15.896C38.1231 15.896 38.625 16.0633 38.625 16.8601V21.3537H40.7045V16.6529C40.7045 14.9877 39.8122 14.183 37.9637 14.183Z" fill="#27292D"/>
<path d="M60.2727 6.25537C59.9619 6.25537 59.444 6.2235 59.0377 6.14383L58.9182 6.11993V3.05245C58.9182 2.79749 58.8704 2.63814 58.8624 2.61424L58.7987 2.48676L58.9341 2.43099C58.966 2.41505 58.9979 2.40709 59.0377 2.39115L59.0616 2.37522C59.1094 2.35928 59.1572 2.34335 59.205 2.32741C59.2289 2.31945 59.2449 2.31148 59.2608 2.31148C59.7309 2.184 60.1611 2.19993 60.3523 2.184H60.3603C61.659 2.184 61.8104 3.33928 61.8104 4.20773C61.8024 5.89684 60.9658 6.25537 60.2727 6.25537ZM60.2647 0.423187C60.2488 0.423187 60.2249 0.423187 60.2089 0.423187C58.9899 0.423187 57.739 0.757823 57.2928 1.41115C57.0538 1.72985 56.9184 2.12823 56.9104 2.59831V5.76139C56.9104 6.03228 56.8546 6.13586 56.8467 6.15976L56.7749 6.29521H52.9267V4.09619H52.9187C52.8709 1.77766 51.5005 0.502862 49.5166 0.502862H49.2855H47.5805C47.5008 1.06855 47.4371 1.46693 47.3574 2.03262H49.2855C50.2974 2.03262 50.8312 2.8931 50.8312 4.2157V6.43066L50.6958 6.35895C50.6719 6.35098 50.5046 6.29521 50.2416 6.29521H46.9112C46.8475 6.71749 46.7678 7.26724 46.6802 7.817H56.9184C57.2689 7.74529 57.6753 7.68155 58.0258 7.62578C58.5437 7.88074 59.5078 8.01618 60.1691 8.01618C62.392 8.01618 63.8341 6.52627 63.8341 4.23164C63.8261 1.96091 62.4318 0.470992 60.2647 0.423187Z" fill="#27292D"/>
<path d="M42.3139 8.74919H42.4096C44.6325 8.74919 45.6682 8.01619 45.6682 6.20757C45.6682 4.90887 44.7201 3.87311 43.1266 3.87311H41.079C40.4655 3.87311 40.099 3.52254 40.099 2.93294C40.099 2.53457 40.2504 2.04059 41.2543 2.04059H45.732C45.8276 1.45896 45.8754 1.09246 45.963 0.510834H41.31C39.1429 0.510834 38.0514 1.41912 38.0514 2.93294C38.0514 4.43083 38.9995 5.21164 40.593 5.21164H42.6406C43.2541 5.21164 43.6206 5.69765 43.6206 6.20757C43.6206 6.5422 43.4692 7.23537 42.4733 7.23537H42.1307L35.5735 7.21944H34.3784C33.3665 7.21944 32.6574 6.64578 32.6574 5.31522V4.39896C32.6574 3.01262 33.2071 2.15213 34.3784 2.15213H36.3224C36.4101 1.56254 36.4658 1.18807 36.5455 0.630346H34.1234H33.8923C31.9084 0.630346 30.538 1.96091 30.4902 4.27945V4.36709V5.31522C30.538 7.63375 31.9084 8.74123 33.8923 8.74123H34.1234H35.8284L39.3819 8.74919H41.5013H42.3139Z" fill="#27292D"/>
</svg>
