<svg width="71" height="30" viewBox="0 0 71 30" fill="none" xmlns="http://www.w3.org/2000/svg">
<path d="M13.5025 3.86863C14.3351 2.82716 14.9 1.42891 14.7511 0C13.5323 0.0606373 12.045 0.804168 11.1839 1.84633C10.4106 2.7389 9.72637 4.19571 9.90483 5.56468C11.2728 5.68333 12.6399 4.88082 13.5025 3.86863Z" fill="black"/>
<path d="M14.7355 5.83195C12.7485 5.71358 11.0591 6.95961 10.1102 6.95961C9.16085 6.95961 7.70776 5.89162 6.13617 5.92035C4.09066 5.95046 2.19267 7.10699 1.15466 8.94641C-0.980357 12.6262 0.59124 18.0847 2.66741 21.0816C3.67559 22.5643 4.89082 24.1969 6.49184 24.1382C8.0046 24.0788 8.59757 23.1586 10.4363 23.1586C12.2738 23.1586 12.8079 24.1382 14.4092 24.1085C16.0699 24.0788 17.1081 22.625 18.1162 21.1409C19.2729 19.4506 19.7464 17.8187 19.7761 17.729C19.7463 17.6993 16.5739 16.4823 16.5445 12.8331C16.5145 9.77766 19.0352 8.32416 19.1538 8.2341C17.7306 6.12906 15.5065 5.89162 14.7355 5.83195Z" fill="black"/>
<path d="M32.0364 1.69675C36.355 1.69675 39.3621 4.67364 39.3621 9.00775C39.3621 13.3573 36.293 16.3497 31.9281 16.3497H27.1466V23.9537H23.6919V1.69675H32.0364ZM27.1464 13.4499H31.1104C34.1182 13.4499 35.83 11.8305 35.83 9.02323C35.83 6.21623 34.1182 4.61203 31.1258 4.61203H27.1464V13.4499Z" fill="black"/>
<path d="M40.2649 19.3421C40.2649 16.5039 42.4397 14.761 46.296 14.5451L50.7379 14.2829V13.0337C50.7379 11.2291 49.5193 10.1494 47.4838 10.1494C45.5553 10.1494 44.3522 11.0747 44.0595 12.5247H40.913C41.0981 9.59397 43.5965 7.43465 47.607 7.43465C51.54 7.43465 54.054 9.5169 54.054 12.7713V23.9537H50.8611V21.2854H50.7843C49.8435 23.0901 47.7919 24.2313 45.6635 24.2313C42.4861 24.2313 40.2649 22.2569 40.2649 19.3421ZM50.7377 17.8768V16.5967L46.7429 16.8434C44.7532 16.9823 43.6273 17.8615 43.6273 19.2497C43.6273 20.6685 44.7994 21.5941 46.5887 21.5941C48.9177 21.5938 50.7377 19.9897 50.7377 17.8768Z" fill="black"/>
<path d="M57.0681 29.9229V27.2237C57.3145 27.2853 57.8696 27.2853 58.1474 27.2853C59.6897 27.2853 60.5227 26.6376 61.0314 24.9718C61.0314 24.9409 61.3248 23.9846 61.3248 23.9691L55.4639 7.7276H59.0727L63.176 20.9307H63.2373L67.3406 7.7276H70.8569L64.7794 24.8019C63.3917 28.7353 61.7875 30 58.4251 30C58.1474 30 57.3143 29.9691 57.0681 29.9229Z" fill="black"/>
</svg>
