<svg width="35" height="28" viewBox="0 0 35 28" fill="none" xmlns="http://www.w3.org/2000/svg">
<path d="M34.2447 26.9124V26.9806H34.3083C34.3203 26.9808 34.332 26.9778 34.3424 26.9719C34.3466 26.969 34.3499 26.965 34.3522 26.9605C34.3544 26.9559 34.3555 26.9509 34.3552 26.9458C34.3555 26.9408 34.3544 26.9359 34.3521 26.9314C34.3499 26.927 34.3466 26.9232 34.3424 26.9204C34.3322 26.9142 34.3203 26.9112 34.3083 26.9117H34.2447V26.9124ZM34.309 26.8641C34.3363 26.8624 34.3633 26.8702 34.3854 26.8863C34.3943 26.8935 34.4014 26.9028 34.406 26.9133C34.4107 26.9238 34.4128 26.9352 34.4122 26.9467C34.4126 26.9565 34.4109 26.9664 34.4072 26.9755C34.4035 26.9847 34.3979 26.9929 34.3907 26.9997C34.3736 27.0146 34.3522 27.0235 34.3296 27.0251L34.415 27.1224H34.3493L34.2708 27.0258H34.2454V27.1224H34.1904V26.8642H34.3099L34.309 26.8641ZM34.2919 27.2114C34.3208 27.2117 34.3493 27.2059 34.3757 27.1944C34.4012 27.1834 34.4243 27.1677 34.444 27.1481C34.4636 27.1286 34.4793 27.1054 34.4902 27.0799C34.5126 27.0258 34.5126 26.9651 34.4902 26.911C34.4792 26.8856 34.4635 26.8624 34.444 26.8427C34.4243 26.8232 34.4012 26.8075 34.3757 26.7965C34.3491 26.7856 34.3207 26.7802 34.2919 26.7805C34.2627 26.7802 34.2337 26.7856 34.2066 26.7965C34.1806 26.8073 34.1569 26.823 34.1369 26.8427C34.1067 26.8737 34.0863 26.9129 34.0782 26.9553C34.0701 26.9978 34.0746 27.0417 34.0913 27.0816C34.1017 27.1072 34.1172 27.1304 34.1369 27.1498C34.1569 27.1696 34.1806 27.1853 34.2066 27.1961C34.2336 27.2076 34.2626 27.2134 34.2919 27.2131M34.2919 26.7184C34.3669 26.7183 34.4389 26.7477 34.4924 26.8003C34.5182 26.8255 34.5387 26.8556 34.5528 26.8888C34.5674 26.9229 34.5749 26.9596 34.5749 26.9967C34.5749 27.0338 34.5674 27.0705 34.5528 27.1046C34.5384 27.1377 34.5179 27.1677 34.4924 27.1932C34.4662 27.2183 34.4358 27.2385 34.4025 27.2529C34.3675 27.2678 34.3299 27.2753 34.2919 27.2751C34.2535 27.2754 34.2154 27.2678 34.18 27.2529C34.1463 27.2388 34.1156 27.2186 34.0894 27.1932C34.0639 27.1668 34.0437 27.1357 34.0299 27.1017C34.0153 27.0676 34.0078 27.0309 34.0078 26.9938C34.0078 26.9567 34.0153 26.92 34.0299 26.8859C34.044 26.8527 34.0645 26.8226 34.0903 26.7974C34.1161 26.7715 34.1469 26.7512 34.1809 26.7376C34.2163 26.7227 34.2544 26.7152 34.2928 26.7155M8.16763 25.7215C8.16763 25.2293 8.49009 24.8249 9.01712 24.8249C9.52077 24.8249 9.86063 25.2119 9.86063 25.7215C9.86063 26.2311 9.52077 26.618 9.01712 26.618C8.49009 26.618 8.16763 26.2137 8.16763 25.7215ZM10.4347 25.7215V24.3207H9.82582V24.662C9.63269 24.4098 9.33975 24.2516 8.94136 24.2516C8.15654 24.2516 7.54063 24.8672 7.54063 25.7222C7.54063 26.5771 8.1562 27.1927 8.94136 27.1927C9.33957 27.1927 9.63269 27.0343 9.82582 26.7824V27.1224H10.4341V25.7215H10.4347ZM31.0093 25.7215C31.0093 25.2293 31.3318 24.8249 31.859 24.8249C32.3632 24.8249 32.7025 25.2119 32.7025 25.7215C32.7025 26.2311 32.3632 26.618 31.859 26.618C31.332 26.618 31.0093 26.2137 31.0093 25.7215ZM33.2771 25.7215V23.1964H32.6677V24.662C32.4746 24.4098 32.1816 24.2516 31.7832 24.2516C30.9984 24.2516 30.3825 24.8672 30.3825 25.7222C30.3825 26.5771 30.9981 27.1927 31.7832 27.1927C32.1816 27.1927 32.4746 27.0343 32.6677 26.7824V27.1224H33.2771V25.7215ZM17.9922 24.7961C18.3846 24.7961 18.6366 25.0421 18.701 25.4753H17.248C17.313 25.0709 17.5585 24.7961 17.9924 24.7961M18.0045 24.2501C17.1839 24.2501 16.6097 24.8473 16.6097 25.7206C16.6097 26.6111 17.2069 27.1911 18.0453 27.1911C18.467 27.1911 18.8533 27.0859 19.1932 26.7987L18.8948 26.3475C18.66 26.5351 18.3611 26.6404 18.0801 26.6404C17.6877 26.6404 17.3304 26.4587 17.2426 25.9545H19.3218C19.3278 25.8788 19.3339 25.8023 19.3339 25.7205C19.3278 24.8474 18.788 24.2499 18.0042 24.2499M25.3559 25.7205C25.3559 25.2282 25.6784 24.8239 26.2054 24.8239C26.709 24.8239 27.0489 25.2108 27.0489 25.7205C27.0489 26.2301 26.709 26.617 26.2054 26.617C25.6784 26.617 25.3557 26.2127 25.3557 25.7205M27.6228 25.7205V24.3207H27.0143V24.662C26.8204 24.4098 26.5282 24.2516 26.1298 24.2516C25.345 24.2516 24.7291 24.8672 24.7291 25.7222C24.7291 26.5771 25.3446 27.1927 26.1298 27.1927C26.5282 27.1927 26.8204 27.0343 27.0143 26.7824V27.1224H27.623V25.7215L27.6228 25.7205ZM21.9172 25.7205C21.9172 26.5699 22.5085 27.191 23.4111 27.191C23.8328 27.191 24.1138 27.0971 24.4177 26.8571L24.1253 26.3649C23.8966 26.5292 23.6566 26.617 23.3916 26.617C22.9055 26.6111 22.5481 26.2596 22.5481 25.7205C22.5481 25.1813 22.9055 24.83 23.3916 24.8239C23.6559 24.8239 23.896 24.9117 24.1253 25.076L24.4177 24.5838C24.1133 24.3438 23.8323 24.2499 23.4111 24.2499C22.5085 24.2499 21.9172 24.8708 21.9172 25.7205ZM29.7671 24.2499C29.4158 24.2499 29.187 24.4142 29.0289 24.6603V24.3207H28.4254V27.1208H29.035V25.5512C29.035 25.0878 29.2341 24.8304 29.6321 24.8304C29.7625 24.8285 29.8919 24.8524 30.013 24.9008L30.2006 24.3269C30.0658 24.2738 29.8901 24.2504 29.7668 24.2504M13.4452 24.5434C13.1523 24.3503 12.7486 24.2504 12.3033 24.2504C11.5939 24.2504 11.1372 24.5905 11.1372 25.1468C11.1372 25.6034 11.4772 25.8851 12.1033 25.973L12.391 26.0139C12.7249 26.0608 12.8825 26.1487 12.8825 26.3069C12.8825 26.5234 12.6607 26.6469 12.2443 26.6469C11.8225 26.6469 11.5181 26.5121 11.3129 26.3539L11.0268 26.8288C11.3607 27.0748 11.7824 27.1922 12.2391 27.1922C13.0479 27.1922 13.5165 26.8114 13.5165 26.2782C13.5165 25.786 13.1477 25.5285 12.5382 25.4406L12.2513 25.399C11.9877 25.3649 11.7764 25.3118 11.7764 25.1242C11.7764 24.9194 11.9755 24.7962 12.3096 24.7962C12.667 24.7962 13.013 24.931 13.1826 25.0363L13.4462 24.5441L13.4452 24.5434ZM21.3021 24.251C20.9508 24.251 20.722 24.4153 20.5646 24.6613V24.3207H19.9611V27.1208H20.57V25.5512C20.57 25.0878 20.7691 24.8304 21.1672 24.8304C21.2975 24.8285 21.4269 24.8524 21.548 24.9008L21.7357 24.3269C21.6009 24.2738 21.4251 24.2504 21.3018 24.2504M16.1059 24.3207H15.1102V23.4713H14.4947V24.3207H13.9267V24.8773H14.4947V26.1547C14.4947 26.8044 14.7468 27.1913 15.4672 27.1913C15.7314 27.1913 16.0358 27.1094 16.2289 26.9748L16.053 26.4534C15.8713 26.5587 15.6722 26.6117 15.5139 26.6117C15.2095 26.6117 15.1102 26.4241 15.1102 26.1431V24.8778H16.1059V24.3207ZM7.00217 27.1215V25.3642C7.00217 24.7024 6.58042 24.2571 5.90052 24.2511C5.54309 24.2452 5.17439 24.3564 4.91625 24.7493C4.72312 24.4388 4.41875 24.2511 3.99085 24.2511C3.69176 24.2511 3.3995 24.339 3.17071 24.6669V24.3207H2.56128V27.1208H3.17549V25.5683C3.17549 25.0822 3.44506 24.8239 3.86135 24.8239C4.26571 24.8239 4.47027 25.0875 4.47027 25.5621V27.1205H5.08584V25.5679C5.08584 25.0818 5.36684 24.8235 5.77103 24.8235C6.18681 24.8235 6.38523 25.0871 6.38523 25.5618V27.1202L7.00217 27.1215Z" fill="#231F20"/>
<path d="M34.5921 17.8071V17.3976H34.4855L34.3621 17.6786L34.2394 17.3976H34.1325V17.8071H34.2082V17.4986L34.3235 17.7647H34.402L34.5174 17.4979V17.8071H34.5924H34.5921ZM33.9156 17.8071V17.4677H34.0521V17.3986H33.7034V17.4677H33.8399V17.8071H33.9149H33.9156Z" fill="#F79410"/>
<path d="M22.4722 19.5632H13.2444V2.97955H22.4723L22.4722 19.5632Z" fill="#FF5F00"/>
<path d="M13.8295 11.2717C13.8295 7.90774 15.4046 4.91108 17.8574 2.97991C16.0008 1.51595 13.7045 0.721417 11.3401 0.724911C5.51589 0.724911 0.794678 5.44681 0.794678 11.2717C0.794678 17.0966 5.51589 21.8185 11.3401 21.8185C13.7045 21.8221 16.0009 21.0275 17.8575 19.5635C15.405 17.6327 13.8295 14.6359 13.8295 11.2717Z" fill="#EB001B"/>
<path d="M34.9216 11.2717C34.9216 17.0966 30.2004 21.8185 24.3762 21.8185C22.0115 21.822 19.7149 21.0275 17.8579 19.5635C20.3113 17.6324 21.8864 14.6359 21.8864 11.2717C21.8864 7.90756 20.3113 4.91108 17.8579 2.97991C19.7149 1.516 22.0114 0.721479 24.376 0.72491C30.2002 0.72491 34.9215 5.44681 34.9215 11.2717" fill="#F79E1B"/>
</svg>
