<svg width="72" height="24" viewBox="0 0 72 24" fill="none" xmlns="http://www.w3.org/2000/svg">
<path d="M37.5521 7.86436C37.5116 11.0594 40.3995 12.8425 42.5751 13.9025C44.8103 14.9903 45.5611 15.6878 45.5526 16.6603C45.5355 18.1491 43.7695 18.806 42.1165 18.8316C39.2328 18.8764 37.5564 18.0531 36.2234 17.4303L35.1847 22.2911C36.522 22.9075 38.9982 23.445 41.5662 23.4685C47.5937 23.4685 51.5374 20.4931 51.5587 15.8797C51.5822 10.025 43.4602 9.70077 43.5157 7.08373C43.5349 6.2903 44.292 5.44354 45.9514 5.22812C46.7726 5.11935 49.0398 5.03617 51.6099 6.21991L52.6188 1.51692C51.2367 1.01356 49.46 0.53153 47.2482 0.53153C41.5747 0.53153 37.5841 3.54742 37.5521 7.86436ZM62.3127 0.936777C61.2121 0.936777 60.2843 1.57877 59.8706 2.56416L51.2601 23.123H57.2834L58.4821 19.8106H65.8426L66.5379 23.123H71.8466L67.214 0.936777H62.3127ZM63.1552 6.93016L64.8935 15.2612H60.1329L63.1552 6.93016ZM30.2492 0.936777L25.5014 23.123H31.241L35.9866 0.936777H30.2492ZM21.7582 0.936777L15.784 16.0375L13.3675 3.19763C13.0838 1.76433 11.964 0.936777 10.7206 0.936777H0.954131L0.817627 1.5809C2.82253 2.01601 5.10044 2.71773 6.48041 3.4685C7.32503 3.92707 7.56605 4.32805 7.84332 5.41795L12.4205 23.123H18.4864L27.7857 0.936777H21.7582Z" fill="url(#paint0_linear_411_2266)"/>
<defs>
<linearGradient id="paint0_linear_411_2266" x1="3266.32" y1="69.484" x2="3332.71" y2="-2286.18" gradientUnits="userSpaceOnUse">
<stop stop-color="#2C2E9E"/>
<stop offset="1" stop-color="#2355D1"/>
</linearGradient>
</defs>
</svg>
